<svg xmlns="http://www.w3.org/2000/svg" width="1000" height="625" viewBox="0 0 1000 625" role="img">
  <defs>
    <linearGradient id="bgGrad" x1="0" y1="0" x2="1" y2="1">
      <stop offset="0" stop-color="#0f0f0f"/>
      <stop offset="1" stop-color="#000000"/>
    </linearGradient>
    
  </defs>
  <g >
    <rect width="1000" height="625" fill="url(#bgGrad)"/>
    <g><path d="M-625 0 L-312.5 312.5 L-625 625" stroke="#ed1d00" stroke-width="10" fill="none" opacity="0.12"/><path d="M-561 0 L-248.5 312.5 L-561 625" stroke="#ed1d00" stroke-width="10" fill="none" opacity="0.12"/><path d="M-497 0 L-184.5 312.5 L-497 625" stroke="#ed1d00" stroke-width="10" fill="none" opacity="0.12"/><path d="M-433 0 L-120.5 312.5 L-433 625" stroke="#ed1d00" stroke-width="10" fill="none" opacity="0.12"/><path d="M-369 0 L-56.5 312.5 L-369 625" stroke="#ed1d00" stroke-width="10" fill="none" opacity="0.12"/><path d="M-305 0 L7.5 312.5 L-305 625" stroke="#ed1d00" stroke-width="10" fill="none" opacity="0.12"/><path d="M-241 0 L71.5 312.5 L-241 625" stroke="#ed1d00" stroke-width="10" fill="none" opacity="0.12"/><path d="M-177 0 L135.5 312.5 L-177 625" stroke="#ed1d00" stroke-width="10" fill="none" opacity="0.12"/><path d="M-113 0 L199.5 312.5 L-113 625" stroke="#ed1d00" stroke-width="10" fill="none" opacity="0.12"/><path d="M-49 0 L263.5 312.5 L-49 625" stroke="#ed1d00" stroke-width="10" fill="none" opacity="0.12"/><path d="M15 0 L327.5 312.5 L15 625" stroke="#ed1d00" stroke-width="10" fill="none" opacity="0.12"/><path d="M79 0 L391.5 312.5 L79 625" stroke="#ed1d00" stroke-width="10" fill="none" opacity="0.12"/><path d="M143 0 L455.5 312.5 L143 625" stroke="#ed1d00" stroke-width="10" fill="none" opacity="0.12"/><path d="M207 0 L519.5 312.5 L207 625" stroke="#ed1d00" stroke-width="10" fill="none" opacity="0.12"/><path d="M271 0 L583.5 312.5 L271 625" stroke="#ed1d00" stroke-width="10" fill="none" opacity="0.12"/><path d="M335 0 L647.5 312.5 L335 625" stroke="#ed1d00" stroke-width="10" fill="none" opacity="0.12"/><path d="M399 0 L711.5 312.5 L399 625" stroke="#ed1d00" stroke-width="10" fill="none" opacity="0.12"/><path d="M463 0 L775.5 312.5 L463 625" stroke="#ed1d00" stroke-width="10" fill="none" opacity="0.12"/><path d="M527 0 L839.5 312.5 L527 625" stroke="#ed1d00" stroke-width="10" fill="none" opacity="0.12"/><path d="M591 0 L903.5 312.5 L591 625" stroke="#ed1d00" stroke-width="10" fill="none" opacity="0.12"/><path d="M655 0 L967.5 312.5 L655 625" stroke="#ed1d00" stroke-width="10" fill="none" opacity="0.12"/><path d="M719 0 L1031.5 312.5 L719 625" stroke="#ed1d00" stroke-width="10" fill="none" opacity="0.12"/><path d="M783 0 L1095.5 312.5 L783 625" stroke="#ed1d00" stroke-width="10" fill="none" opacity="0.12"/><path d="M847 0 L1159.5 312.5 L847 625" stroke="#ed1d00" stroke-width="10" fill="none" opacity="0.12"/><path d="M911 0 L1223.5 312.5 L911 625" stroke="#ed1d00" stroke-width="10" fill="none" opacity="0.12"/><path d="M975 0 L1287.5 312.5 L975 625" stroke="#ed1d00" stroke-width="10" fill="none" opacity="0.12"/></g>
    <rect x="0" y="617" width="1000" height="8" fill="#ed1d00"/>
    <text x="500" y="306.5" text-anchor="middle" font-family="Helvetica, Arial, sans-serif" font-weight="800" font-size="63" fill="#ffffff" letter-spacing="2">NOW</text>
    <text x="500" y="350.5" text-anchor="middle" font-family="Helvetica, Arial, sans-serif" font-weight="600" font-size="26" fill="#ed1d00" letter-spacing="3">COACH-LED PROGRESS</text>
    <text x="984" y="607" text-anchor="end" font-family="Helvetica, Arial, sans-serif" font-weight="800" font-size="36" fill="#ffffff" opacity="0.25">ACHIEVE ▲</text>
  </g>
</svg>