<svg xmlns="http://www.w3.org/2000/svg" width="1600" height="900" viewBox="0 0 1600 900" role="img">
  <defs>
    <linearGradient id="bgGrad" x1="0" y1="0" x2="1" y2="1">
      <stop offset="0" stop-color="#000000"/>
      <stop offset="1" stop-color="#0f0f0f"/>
    </linearGradient>
    
  </defs>
  <g >
    <rect width="1600" height="900" fill="url(#bgGrad)"/>
    <g><path d="M-900 0 L-450 450 L-900 900" stroke="#ed1d00" stroke-width="10" fill="none" opacity="0.12"/><path d="M-836 0 L-386 450 L-836 900" stroke="#ed1d00" stroke-width="10" fill="none" opacity="0.12"/><path d="M-772 0 L-322 450 L-772 900" stroke="#ed1d00" stroke-width="10" fill="none" opacity="0.12"/><path d="M-708 0 L-258 450 L-708 900" stroke="#ed1d00" stroke-width="10" fill="none" opacity="0.12"/><path d="M-644 0 L-194 450 L-644 900" stroke="#ed1d00" stroke-width="10" fill="none" opacity="0.12"/><path d="M-580 0 L-130 450 L-580 900" stroke="#ed1d00" stroke-width="10" fill="none" opacity="0.12"/><path d="M-516 0 L-66 450 L-516 900" stroke="#ed1d00" stroke-width="10" fill="none" opacity="0.12"/><path d="M-452 0 L-2 450 L-452 900" stroke="#ed1d00" stroke-width="10" fill="none" opacity="0.12"/><path d="M-388 0 L62 450 L-388 900" stroke="#ed1d00" stroke-width="10" fill="none" opacity="0.12"/><path d="M-324 0 L126 450 L-324 900" stroke="#ed1d00" stroke-width="10" fill="none" opacity="0.12"/><path d="M-260 0 L190 450 L-260 900" stroke="#ed1d00" stroke-width="10" fill="none" opacity="0.12"/><path d="M-196 0 L254 450 L-196 900" stroke="#ed1d00" stroke-width="10" fill="none" opacity="0.12"/><path d="M-132 0 L318 450 L-132 900" stroke="#ed1d00" stroke-width="10" fill="none" opacity="0.12"/><path d="M-68 0 L382 450 L-68 900" stroke="#ed1d00" stroke-width="10" fill="none" opacity="0.12"/><path d="M-4 0 L446 450 L-4 900" stroke="#ed1d00" stroke-width="10" fill="none" opacity="0.12"/><path d="M60 0 L510 450 L60 900" stroke="#ed1d00" stroke-width="10" fill="none" opacity="0.12"/><path d="M124 0 L574 450 L124 900" stroke="#ed1d00" stroke-width="10" fill="none" opacity="0.12"/><path d="M188 0 L638 450 L188 900" stroke="#ed1d00" stroke-width="10" fill="none" opacity="0.12"/><path d="M252 0 L702 450 L252 900" stroke="#ed1d00" stroke-width="10" fill="none" opacity="0.12"/><path d="M316 0 L766 450 L316 900" stroke="#ed1d00" stroke-width="10" fill="none" opacity="0.12"/><path d="M380 0 L830 450 L380 900" stroke="#ed1d00" stroke-width="10" fill="none" opacity="0.12"/><path d="M444 0 L894 450 L444 900" stroke="#ed1d00" stroke-width="10" fill="none" opacity="0.12"/><path d="M508 0 L958 450 L508 900" stroke="#ed1d00" stroke-width="10" fill="none" opacity="0.12"/><path d="M572 0 L1022 450 L572 900" stroke="#ed1d00" stroke-width="10" fill="none" opacity="0.12"/><path d="M636 0 L1086 450 L636 900" stroke="#ed1d00" stroke-width="10" fill="none" opacity="0.12"/><path d="M700 0 L1150 450 L700 900" stroke="#ed1d00" stroke-width="10" fill="none" opacity="0.12"/><path d="M764 0 L1214 450 L764 900" stroke="#ed1d00" stroke-width="10" fill="none" opacity="0.12"/><path d="M828 0 L1278 450 L828 900" stroke="#ed1d00" stroke-width="10" fill="none" opacity="0.12"/><path d="M892 0 L1342 450 L892 900" stroke="#ed1d00" stroke-width="10" fill="none" opacity="0.12"/><path d="M956 0 L1406 450 L956 900" stroke="#ed1d00" stroke-width="10" fill="none" opacity="0.12"/><path d="M1020 0 L1470 450 L1020 900" stroke="#ed1d00" stroke-width="10" fill="none" opacity="0.12"/><path d="M1084 0 L1534 450 L1084 900" stroke="#ed1d00" stroke-width="10" fill="none" opacity="0.12"/><path d="M1148 0 L1598 450 L1148 900" stroke="#ed1d00" stroke-width="10" fill="none" opacity="0.12"/><path d="M1212 0 L1662 450 L1212 900" stroke="#ed1d00" stroke-width="10" fill="none" opacity="0.12"/><path d="M1276 0 L1726 450 L1276 900" stroke="#ed1d00" stroke-width="10" fill="none" opacity="0.12"/><path d="M1340 0 L1790 450 L1340 900" stroke="#ed1d00" stroke-width="10" fill="none" opacity="0.12"/><path d="M1404 0 L1854 450 L1404 900" stroke="#ed1d00" stroke-width="10" fill="none" opacity="0.12"/><path d="M1468 0 L1918 450 L1468 900" stroke="#ed1d00" stroke-width="10" fill="none" opacity="0.12"/><path d="M1532 0 L1982 450 L1532 900" stroke="#ed1d00" stroke-width="10" fill="none" opacity="0.12"/><path d="M1596 0 L2046 450 L1596 900" stroke="#ed1d00" stroke-width="10" fill="none" opacity="0.12"/></g>
    <rect x="0" y="892" width="1600" height="8" fill="#ed1d00"/>
    <text x="800" y="444" text-anchor="middle" font-family="Helvetica, Arial, sans-serif" font-weight="800" font-size="100" fill="#ffffff" letter-spacing="2"></text>
    
    <text x="1584" y="882" text-anchor="end" font-family="Helvetica, Arial, sans-serif" font-weight="800" font-size="57" fill="#ffffff" opacity="0.25">ACHIEVE ▲</text>
  </g>
</svg>