<svg xmlns="http://www.w3.org/2000/svg" width="600" height="400" viewBox="0 0 600 400" role="img">
  <defs>
    <linearGradient id="bgGrad" x1="0" y1="0" x2="1" y2="1">
      <stop offset="0" stop-color="#0f0f0f"/>
      <stop offset="1" stop-color="#262626"/>
    </linearGradient>
    
  </defs>
  <g >
    <rect width="600" height="400" fill="url(#bgGrad)"/>
    <g><path d="M-400 0 L-200 200 L-400 400" stroke="#ed1d00" stroke-width="10" fill="none" opacity="0.12"/><path d="M-336 0 L-136 200 L-336 400" stroke="#ed1d00" stroke-width="10" fill="none" opacity="0.12"/><path d="M-272 0 L-72 200 L-272 400" stroke="#ed1d00" stroke-width="10" fill="none" opacity="0.12"/><path d="M-208 0 L-8 200 L-208 400" stroke="#ed1d00" stroke-width="10" fill="none" opacity="0.12"/><path d="M-144 0 L56 200 L-144 400" stroke="#ed1d00" stroke-width="10" fill="none" opacity="0.12"/><path d="M-80 0 L120 200 L-80 400" stroke="#ed1d00" stroke-width="10" fill="none" opacity="0.12"/><path d="M-16 0 L184 200 L-16 400" stroke="#ed1d00" stroke-width="10" fill="none" opacity="0.12"/><path d="M48 0 L248 200 L48 400" stroke="#ed1d00" stroke-width="10" fill="none" opacity="0.12"/><path d="M112 0 L312 200 L112 400" stroke="#ed1d00" stroke-width="10" fill="none" opacity="0.12"/><path d="M176 0 L376 200 L176 400" stroke="#ed1d00" stroke-width="10" fill="none" opacity="0.12"/><path d="M240 0 L440 200 L240 400" stroke="#ed1d00" stroke-width="10" fill="none" opacity="0.12"/><path d="M304 0 L504 200 L304 400" stroke="#ed1d00" stroke-width="10" fill="none" opacity="0.12"/><path d="M368 0 L568 200 L368 400" stroke="#ed1d00" stroke-width="10" fill="none" opacity="0.12"/><path d="M432 0 L632 200 L432 400" stroke="#ed1d00" stroke-width="10" fill="none" opacity="0.12"/><path d="M496 0 L696 200 L496 400" stroke="#ed1d00" stroke-width="10" fill="none" opacity="0.12"/><path d="M560 0 L760 200 L560 400" stroke="#ed1d00" stroke-width="10" fill="none" opacity="0.12"/></g>
    <rect x="0" y="392" width="600" height="8" fill="#ed1d00"/>
    <text x="300" y="194" text-anchor="middle" font-family="Helvetica, Arial, sans-serif" font-weight="800" font-size="38" fill="#ffffff" letter-spacing="2">STICK STRETCH</text>
    <text x="300" y="223" text-anchor="middle" font-family="Helvetica, Arial, sans-serif" font-weight="600" font-size="16" fill="#ed1d00" letter-spacing="3">MOBILITY · RECOVERY</text>
    <text x="584" y="382" text-anchor="end" font-family="Helvetica, Arial, sans-serif" font-weight="800" font-size="21" fill="#ffffff" opacity="0.25">ACHIEVE ▲</text>
  </g>
</svg>